<svg width="20" height="20" viewBox="0 0 20 20" fill="none" xmlns="http://www.w3.org/2000/svg">
<path d="M9.73145 1.81804C9.37969 1.85022 9.0665 2.10659 8.98275 2.47722L8.52051 4.51498L6.26139 7.02474C5.98556 7.33058 5.83333 7.72798 5.83333 8.13965V15.8333C5.83333 16.7542 6.57917 17.5 7.5 17.5H14.1927C14.8102 17.5 15.3693 17.1364 15.6201 16.5723L18.1217 10.9424C18.2609 10.6307 18.3333 10.2928 18.3333 9.95117V9.16667C18.3333 8.25 17.5833 7.5 16.6667 7.5H10.8333C10.8333 7.5 11.6667 5.5244 11.6667 4.05274C11.6667 2.70857 10.802 2.12028 10.0895 1.86361C9.97056 1.82049 9.8487 1.80731 9.73145 1.81804ZM2.91667 7.5C2.22667 7.5 1.66667 8.06 1.66667 8.75V16.25C1.66667 16.94 2.22667 17.5 2.91667 17.5C3.60667 17.5 4.16667 16.94 4.16667 16.25V8.75C4.16667 8.06 3.60667 7.5 2.91667 7.5Z" fill="#191919" fill-opacity="0.35"/>
</svg>
