<svg width="20" height="20" viewBox="0 0 20 20" fill="none" xmlns="http://www.w3.org/2000/svg">
<path d="M5 5.83334C2.56417 5.83334 0.6162 7.92353 0.852866 10.4085C1.05953 12.5752 3.00237 14.1667 5.17904 14.1667H7.5C7.96 14.1667 8.33334 13.7933 8.33334 13.3333C8.33334 12.8733 7.96 12.5 7.5 12.5H5.1416C3.78827 12.5 2.57488 11.486 2.50488 10.1335C2.42905 8.6918 3.575 7.5 5 7.5H7.5C7.96 7.5 8.33334 7.12667 8.33334 6.66667C8.33334 6.20667 7.96 5.83334 7.5 5.83334H5ZM12.5 5.83334C12.04 5.83334 11.6667 6.20667 11.6667 6.66667C11.6667 7.12667 12.04 7.5 12.5 7.5H14.8584C16.2117 7.5 17.4251 8.51404 17.4951 9.86654C17.571 11.3082 16.425 12.5 15 12.5H12.5C12.04 12.5 11.6667 12.8733 11.6667 13.3333C11.6667 13.7933 12.04 14.1667 12.5 14.1667H15C17.4358 14.1667 19.3838 12.0765 19.1471 9.59147C18.9405 7.42481 16.9976 5.83334 14.821 5.83334H12.5ZM6.66667 9.16667C6.20667 9.16667 5.83333 9.54 5.83333 10C5.83333 10.46 6.20667 10.8333 6.66667 10.8333H13.3333C13.7933 10.8333 14.1667 10.46 14.1667 10C14.1667 9.54 13.7933 9.16667 13.3333 9.16667H6.66667Z" fill="#191919" fill-opacity="0.35"/>
</svg>
