<svg width="20" height="20" viewBox="0 0 20 20" fill="none" xmlns="http://www.w3.org/2000/svg">
<path d="M16.6658 2.5H3.34167C2.42501 2.5 1.67417 3.25 1.67417 4.16667L1.66667 14.1658C1.66667 15.0867 2.41251 15.8333 3.33334 15.8333H4.58251C4.81251 15.8333 4.99917 16.02 4.99917 16.25V17.9883C4.99917 18.7308 5.89667 19.1025 6.42167 18.5775L8.92167 16.0775C9.07834 15.9208 9.29001 15.8333 9.51084 15.8333H16.6658C17.5825 15.8333 18.3325 15.0833 18.3325 14.1667V4.16667C18.3325 3.25 17.5825 2.5 16.6658 2.5ZM13.2525 12.5C12.8425 12.5 12.5167 12.1975 12.4292 11.7975C12.06 10.1225 10.3792 10.005 10 10V11.6667C10 12.0033 9.79751 12.3075 9.48584 12.4367C9.38251 12.4792 9.27417 12.5 9.16667 12.5C8.95001 12.5 8.73667 12.415 8.57751 12.2558L6.07751 9.75583C5.75167 9.43 5.75167 8.90333 6.07751 8.5775L8.57751 6.0775C8.81584 5.83917 9.17334 5.76833 9.48584 5.89667C9.79751 6.02583 10 6.32917 10 6.66667V8.33333C11.2792 8.33333 13.57 9.01917 14.0692 11.4775C14.1758 12.0025 13.7875 12.5 13.2525 12.5Z" fill="#191919" fill-opacity="0.35"/>
</svg>
