<svg width="20" height="20" viewBox="0 0 20 20" fill="none" xmlns="http://www.w3.org/2000/svg">
<path d="M7.50163 4.16666C6.80246 4.16666 6.41392 4.975 6.85058 5.52083C7.00892 5.71833 7.24829 5.83333 7.50163 5.83333H15C15.46 5.83333 15.8333 6.20666 15.8333 6.66666V11.6667H14.528C14.0463 11.6667 13.7796 12.2234 14.0804 12.5993L16.084 15.1058C16.3823 15.4791 16.951 15.4791 17.2493 15.1058L19.2529 12.5993C19.5538 12.2234 19.287 11.6667 18.8053 11.6667H17.5V6.66666C17.5 5.28583 16.3808 4.16666 15 4.16666H7.50163ZM3.33333 4.61426C3.11666 4.61426 2.89982 4.70754 2.75065 4.8942L0.747068 7.40071C0.446234 7.77655 0.712992 8.33333 1.19466 8.33333H2.5V13.3333C2.5 14.7142 3.61916 15.8333 5 15.8333H12.4984C13.1975 15.8333 13.5861 15.025 13.1494 14.4792C12.9911 14.2817 12.7517 14.1667 12.4984 14.1667H5C4.54 14.1667 4.16666 13.7933 4.16666 13.3333V8.33333H5.472C5.95367 8.33333 6.22043 7.77655 5.91959 7.40071L3.91601 4.8942C3.76685 4.70754 3.55 4.61426 3.33333 4.61426Z" fill="#191919" fill-opacity="0.35"/>
</svg>
