<svg width="24" height="24" viewBox="0 0 24 24" fill="none" xmlns="http://www.w3.org/2000/svg">
<path d="M4 3.00001C3.73478 3.00001 3.48043 3.10537 3.29289 3.2929C3.10536 3.48044 3 3.73479 3 4.00001C3 4.26522 3.10536 4.51958 3.29289 4.70712C3.48043 4.89465 3.73478 5.00001 4 5.00001C4.26522 5.00001 4.51957 4.89465 4.70711 4.70712C4.89464 4.51958 5 4.26522 5 4.00001C5 3.73479 4.89464 3.48044 4.70711 3.2929C4.51957 3.10537 4.26522 3.00001 4 3.00001ZM8 3.00001C7.86749 2.99813 7.73593 3.02262 7.61296 3.07203C7.48999 3.12144 7.37807 3.1948 7.2837 3.28785C7.18933 3.38089 7.11439 3.49177 7.06324 3.61402C7.0121 3.73628 6.98576 3.86748 6.98576 4.00001C6.98576 4.13253 7.0121 4.26374 7.06324 4.38599C7.11439 4.50825 7.18933 4.61912 7.2837 4.71217C7.37807 4.80521 7.48999 4.87857 7.61296 4.92799C7.73593 4.9774 7.86749 5.00188 8 5.00001H20C20.1325 5.00188 20.2641 4.9774 20.387 4.92799C20.51 4.87857 20.6219 4.80521 20.7163 4.71217C20.8107 4.61912 20.8856 4.50825 20.9368 4.38599C20.9879 4.26374 21.0142 4.13253 21.0142 4.00001C21.0142 3.86748 20.9879 3.73628 20.9368 3.61402C20.8856 3.49177 20.8107 3.38089 20.7163 3.28785C20.6219 3.1948 20.51 3.12144 20.387 3.07203C20.2641 3.02262 20.1325 2.99813 20 3.00001H8ZM4 7.00001C3.73478 7.00001 3.48043 7.10537 3.29289 7.2929C3.10536 7.48044 3 7.73479 3 8.00001C3 8.26522 3.10536 8.51958 3.29289 8.70712C3.48043 8.89465 3.73478 9.00001 4 9.00001C4.26522 9.00001 4.51957 8.89465 4.70711 8.70712C4.89464 8.51958 5 8.26522 5 8.00001C5 7.73479 4.89464 7.48044 4.70711 7.2929C4.51957 7.10537 4.26522 7.00001 4 7.00001ZM8 7.00001C7.86749 6.99813 7.73593 7.02262 7.61296 7.07203C7.48999 7.12144 7.37807 7.1948 7.2837 7.28785C7.18933 7.38089 7.11439 7.49177 7.06324 7.61402C7.0121 7.73628 6.98576 7.86748 6.98576 8.00001C6.98576 8.13253 7.0121 8.26374 7.06324 8.38599C7.11439 8.50825 7.18933 8.61912 7.2837 8.71217C7.37807 8.80521 7.48999 8.87857 7.61296 8.92799C7.73593 8.9774 7.86749 9.00188 8 9.00001H18C18.1325 9.00188 18.2641 8.9774 18.387 8.92799C18.51 8.87857 18.6219 8.80521 18.7163 8.71217C18.8107 8.61912 18.8856 8.50825 18.9368 8.38599C18.9879 8.26374 19.0142 8.13253 19.0142 8.00001C19.0142 7.86748 18.9879 7.73628 18.9368 7.61402C18.8856 7.49177 18.8107 7.38089 18.7163 7.28785C18.6219 7.1948 18.51 7.12144 18.387 7.07203C18.2641 7.02262 18.1325 6.99813 18 7.00001H8ZM4 11C3.73478 11 3.48043 11.1054 3.29289 11.2929C3.10536 11.4804 3 11.7348 3 12C3 12.2652 3.10536 12.5196 3.29289 12.7071C3.48043 12.8947 3.73478 13 4 13C4.26522 13 4.51957 12.8947 4.70711 12.7071C4.89464 12.5196 5 12.2652 5 12C5 11.7348 4.89464 11.4804 4.70711 11.2929C4.51957 11.1054 4.26522 11 4 11ZM8 11C7.86749 10.9981 7.73593 11.0226 7.61296 11.072C7.48999 11.1214 7.37807 11.1948 7.2837 11.2878C7.18933 11.3809 7.11439 11.4918 7.06324 11.614C7.0121 11.7363 6.98576 11.8675 6.98576 12C6.98576 12.1325 7.0121 12.2637 7.06324 12.386C7.11439 12.5083 7.18933 12.6191 7.2837 12.7122C7.37807 12.8052 7.48999 12.8786 7.61296 12.928C7.73593 12.9774 7.86749 13.0019 8 13H16C16.1325 13.0019 16.2641 12.9774 16.387 12.928C16.51 12.8786 16.6219 12.8052 16.7163 12.7122C16.8107 12.6191 16.8856 12.5083 16.9368 12.386C16.9879 12.2637 17.0142 12.1325 17.0142 12C17.0142 11.8675 16.9879 11.7363 16.9368 11.614C16.8856 11.4918 16.8107 11.3809 16.7163 11.2878C16.6219 11.1948 16.51 11.1214 16.387 11.072C16.2641 11.0226 16.1325 10.9981 16 11H8ZM4 15C3.73478 15 3.48043 15.1054 3.29289 15.2929C3.10536 15.4804 3 15.7348 3 16C3 16.2652 3.10536 16.5196 3.29289 16.7071C3.48043 16.8947 3.73478 17 4 17C4.26522 17 4.51957 16.8947 4.70711 16.7071C4.89464 16.5196 5 16.2652 5 16C5 15.7348 4.89464 15.4804 4.70711 15.2929C4.51957 15.1054 4.26522 15 4 15ZM8 15C7.86749 14.9981 7.73593 15.0226 7.61296 15.072C7.48999 15.1214 7.37807 15.1948 7.2837 15.2878C7.18933 15.3809 7.11439 15.4918 7.06324 15.614C7.0121 15.7363 6.98576 15.8675 6.98576 16C6.98576 16.1325 7.0121 16.2637 7.06324 16.386C7.11439 16.5083 7.18933 16.6191 7.2837 16.7122C7.37807 16.8052 7.48999 16.8786 7.61296 16.928C7.73593 16.9774 7.86749 17.0019 8 17H14C14.1325 17.0019 14.2641 16.9774 14.387 16.928C14.51 16.8786 14.6219 16.8052 14.7163 16.7122C14.8107 16.6191 14.8856 16.5083 14.9368 16.386C14.9879 16.2637 15.0142 16.1325 15.0142 16C15.0142 15.8675 14.9879 15.7363 14.9368 15.614C14.8856 15.4918 14.8107 15.3809 14.7163 15.2878C14.6219 15.1948 14.51 15.1214 14.387 15.072C14.2641 15.0226 14.1325 14.9981 14 15H8ZM4 19C3.73478 19 3.48043 19.1054 3.29289 19.2929C3.10536 19.4804 3 19.7348 3 20C3 20.2652 3.10536 20.5196 3.29289 20.7071C3.48043 20.8947 3.73478 21 4 21C4.26522 21 4.51957 20.8947 4.70711 20.7071C4.89464 20.5196 5 20.2652 5 20C5 19.7348 4.89464 19.4804 4.70711 19.2929C4.51957 19.1054 4.26522 19 4 19ZM8 19C7.86749 18.9981 7.73593 19.0226 7.61296 19.072C7.48999 19.1214 7.37807 19.1948 7.2837 19.2878C7.18933 19.3809 7.11439 19.4918 7.06324 19.614C7.0121 19.7363 6.98576 19.8675 6.98576 20C6.98576 20.1325 7.0121 20.2637 7.06324 20.386C7.11439 20.5083 7.18933 20.6191 7.2837 20.7122C7.37807 20.8052 7.48999 20.8786 7.61296 20.928C7.73593 20.9774 7.86749 21.0019 8 21H12C12.1325 21.0019 12.2641 20.9774 12.387 20.928C12.51 20.8786 12.6219 20.8052 12.7163 20.7122C12.8107 20.6191 12.8856 20.5083 12.9368 20.386C12.9879 20.2637 13.0142 20.1325 13.0142 20C13.0142 19.8675 12.9879 19.7363 12.9368 19.614C12.8856 19.4918 12.8107 19.3809 12.7163 19.2878C12.6219 19.1948 12.51 19.1214 12.387 19.072C12.2641 19.0226 12.1325 18.9981 12 19H8Z" fill="#0038FF"/>
</svg>
